ffmpeg started on 2025-09-27 at 14:42:09
Report written to "D:\Convert\FFMetrics\reports\psnr_report-6.txt"
Log level: 32
Command line:
ffmpeg -hide_banner -nostdin -i "F:\\\xc0\xed\xe8\xec\xe5\\[\xd2\xee\xef]\\Fate\\\xd1\xf2\xf0\xe0\xed\xed\xe0\xff \xef\xee\xe4\xe4\xe5\xeb\xea\xe0\\[\xd4\xe8\xeb\xfc\xec] \xd8\xb8\xef\xee\xf2 \xf0\xe0\xf1\xf1\xe2\xe5\xf2\xe0\\[DC] Fate Strange Fake - Whispers of Dawn - SP_Telegram_HEVC.mkv" -i "F:\\\xc0\xed\xe8\xec\xe5\\[\xd2\xee\xef]\\Fate\\\xd1\xf2\xf0\xe0\xed\xed\xe0\xff \xef\xee\xe4\xe4\xe5\xeb\xea\xe0\\[\xd4\xe8\xeb\xfc\xec] \xd8\xb8\xef\xee\xf2 \xf0\xe0\xf1\xf1\xe2\xe5\xf2\xe0\\[DC] Fate Strange Fake - Whispers of Dawn - SP_Telegram.mp4" -lavfi "[0:v]settb=AVTB,setpts=PTS-STARTPTS,format=pix_fmts=yuv420p10le,fps=24000/1001,scale=1920:1080:flags=bicubic[main];[1:v]settb=AVTB,setpts=PTS-STARTPTS,format=pix_fmts=yuv420p,fps=24000/1001,scale=1920:1080:flags=bicubic[ref];[main][ref]psnr=eof_action=endall:stats_file='D\\:/Convert/FFMetrics/logs/psnr_logfile-6.txt'" -f null -
Input #0, matroska,webm, from 'F:\Аниме\[Топ]\Fate\Странная подделка\[Фильм] Шёпот рассвета\[DC] Fate Strange Fake - Whispers of Dawn - SP_Telegram_HEVC.mkv':
  Metadata:
    COMPATIBLE_BRANDS: isomiso2avc1mp41
    MAJOR_BRAND     : isom
    MINOR_VERSION   : 512
    ENCODER         : Lavf61.7.100
  Duration: 00:56:00.73, start: -0.021000, bitrate: 1407 kb/s
  Stream #0:0: Video: hevc (Main 10), yuv420p10le(tv, bt709, progressive), 1920x1080 [SAR 1:1 DAR 16:9], 23.98 fps, 23.98 tbr, 1k tbn (default)
      Metadata:
        HANDLER_NAME    : VideoHandler
        VENDOR_ID       : [0][0][0][0]
        ENCODER         : Lavc61.19.100 libx265
        BPS             : 1209322
        DURATION        : 00:56:00.607708333
        NUMBER_OF_FRAMES: 80574
        NUMBER_OF_BYTES : 508007076
        _STATISTICS_WRITING_APP: mkvpropedit v94.0 ('Initiate') 64-bit
        _STATISTICS_WRITING_DATE_UTC: 2025-09-27 11:40:47
        _STATISTICS_TAGS: BPS DURATION NUMBER_OF_FRAMES NUMBER_OF_BYTES
  Stream #0:1: Audio: aac (LC), 48000 Hz, stereo, fltp (default)
      Metadata:
        HANDLER_NAME    : SoundHandler
        VENDOR_ID       : [0][0][0][0]
        ENCODER         : Lavc61.19.100 aac
        BPS             : 193925
        DURATION        : 00:56:00.725000000
        NUMBER_OF_FRAMES: 157535
        NUMBER_OF_BYTES : 81466340
        _STATISTICS_WRITING_APP: mkvpropedit v94.0 ('Initiate') 64-bit
        _STATISTICS_WRITING_DATE_UTC: 2025-09-27 11:40:47
        _STATISTICS_TAGS: BPS DURATION NUMBER_OF_FRAMES NUMBER_OF_BYTES
Input #1, mov,mp4,m4a,3gp,3g2,mj2, from 'F:\Аниме\[Топ]\Fate\Странная подделка\[Фильм] Шёпот рассвета\[DC] Fate Strange Fake - Whispers of Dawn - SP_Telegram.mp4':
  Metadata:
    major_brand     : isom
    minor_version   : 512
    compatible_brands: isomiso2avc1mp41
    encoder         : Lavf61.7.100
  Duration: 00:56:00.69, start: 0.000000, bitrate: 3847 kb/s
  Stream #1:0[0x1](und): Video: h264 (High) (avc1 / 0x31637661), yuv420p(tv, bt709, progressive), 1920x1080 [SAR 1:1 DAR 16:9], 3699 kb/s, 23.98 fps, 23.98 tbr, 24k tbn (default)
      Metadata:
        handler_name    : VideoHandler
        vendor_id       : [0][0][0][0]
        encoder         : Lavc61.19.101 h264_qsv
  Stream #1:1[0x2](und): Audio: aac (HE-AACv2) (mp4a / 0x6134706D), 48000 Hz, stereo, fltp, 144 kb/s (default)
      Metadata:
        handler_name    : SoundHandler
        vendor_id       : [0][0][0][0]
Stream mapping:
  Stream #0:0 (hevc) -> settb:default
  Stream #1:0 (h264) -> settb:default
  psnr:default -> Stream #0:0 (wrapped_avframe)
  Stream #0:1 -> #0:1 (aac (native) -> pcm_s16le (native))
Output #0, null, to 'pipe:':
  Metadata:
    COMPATIBLE_BRANDS: isomiso2avc1mp41
    MAJOR_BRAND     : isom
    MINOR_VERSION   : 512
    encoder         : Lavf61.7.100
  Stream #0:0: Video: wrapped_avframe, yuv420p10le(tv, bt709, progressive), 1920x1080 [SAR 1:1 DAR 16:9], q=2-31, 200 kb/s, 23.98 fps, 23.98 tbn
      Metadata:
        encoder         : Lavc61.19.100 wrapped_avframe
  Stream #0:1: Audio: pcm_s16le, 48000 Hz, stereo, s16, 1536 kb/s (default)
      Metadata:
        HANDLER_NAME    : SoundHandler
        VENDOR_ID       : [0][0][0][0]
        _STATISTICS_TAGS: BPS DURATION NUMBER_OF_FRAMES NUMBER_OF_BYTES
        BPS             : 193925
        DURATION        : 00:56:00.725000000
        NUMBER_OF_FRAMES: 157535
        NUMBER_OF_BYTES : 81466340
        _STATISTICS_WRITING_APP: mkvpropedit v94.0 ('Initiate') 64-bit
        _STATISTICS_WRITING_DATE_UTC: 2025-09-27 11:40:47
        encoder         : Lavc61.19.100 pcm_s16le
frame=  186 fps=0.0 q=-0.0 size=N/A time=00:00:07.75 bitrate=N/A speed=14.9x    frame=  416 fps=403 q=-0.0 size=N/A time=00:00:17.35 bitrate=N/A speed=16.8x    frame=  646 fps=415 q=-0.0 size=N/A time=00:00:26.94 bitrate=N/A speed=17.3x    frame=  854 fps=413 q=-0.0 size=N/A time=00:00:35.61 bitrate=N/A speed=17.2x    frame= 1079 fps=418 q=-0.0 size=N/A time=00:00:45.00 bitrate=N/A speed=17.4x    frame= 1312 fps=422 q=-0.0 size=N/A time=00:00:54.72 bitrate=N/A speed=17.6x    frame= 1514 fps=419 q=-0.0 size=N/A time=00:01:03.14 bitrate=N/A speed=17.5x    frame= 1723 fps=417 q=-0.0 size=N/A time=00:01:11.86 bitrate=N/A speed=17.4x    frame= 1918 fps=412 q=-0.0 size=N/A time=00:01:19.99 bitrate=N/A speed=17.2x    frame= 2168 fps=420 q=-0.0 size=N/A time=00:01:30.42 bitrate=N/A speed=17.5x    frame= 2390 fps=421 q=-0.0 size=N/A time=00:01:39.68 bitrate=N/A speed=17.6x    frame= 2675 fps=432 q=-0.0 size=N/A time=00:01:51.56 bitrate=N/A speed=  18x    frame= 2953 fps=440 q=-0.0 size=N/A time=00:02:03.20 bitrate=N/A speed=18.4x    frame= 3228 fps=447 q=-0.0 size=N/A time=00:02:14.63 bitrate=N/A speed=18.6x    frame= 3495 fps=452 q=-0.0 size=N/A time=00:02:25.77 bitrate=N/A speed=18.8x    frame= 3723 fps=451 q=-0.0 size=N/A time=00:02:35.28 bitrate=N/A speed=18.8x    frame= 3967 fps=452 q=-0.0 size=N/A time=00:02:45.45 bitrate=N/A speed=18.8x    frame= 4215 fps=454 q=-0.0 size=N/A time=00:02:55.80 bitrate=N/A speed=18.9x    frame= 4437 fps=452 q=-0.0 size=N/A time=00:03:05.05 bitrate=N/A speed=18.9x    frame= 4662 fps=452 q=-0.0 size=N/A time=00:03:14.44 bitrate=N/A speed=18.8x    frame= 4880 fps=450 q=-0.0 size=N/A time=00:03:23.53 bitrate=N/A speed=18.8x    frame= 5118 fps=451 q=-0.0 size=N/A time=00:03:33.46 bitrate=N/A speed=18.8x    frame= 5349 fps=450 q=-0.0 size=N/A time=00:03:43.09 bitrate=N/A speed=18.8x    frame= 5567 fps=450 q=-0.0 size=N/A time=00:03:52.19 bitrate=N/A speed=18.8x    frame= 5792 fps=449 q=-0.0 size=N/A time=00:04:01.57 bitrate=N/A speed=18.7x    frame= 6030 fps=450 q=-0.0 size=N/A time=00:04:11.50 bitrate=N/A speed=18.8x    frame= 6232 fps=448 q=-0.0 size=N/A time=00:04:19.92 bitrate=N/A speed=18.7x    frame= 6452 fps=447 q=-0.0 size=N/A time=00:04:29.10 bitrate=N/A speed=18.6x    frame= 6604 fps=441 q=-0.0 size=N/A time=00:04:35.44 bitrate=N/A speed=18.4x    frame= 6784 fps=438 q=-0.0 size=N/A time=00:04:42.94 bitrate=N/A speed=18.3x    frame= 7006 fps=438 q=-0.0 size=N/A time=00:04:52.20 bitrate=N/A speed=18.3x    frame= 7240 fps=438 q=-0.0 size=N/A time=00:05:01.96 bitrate=N/A speed=18.3x    frame= 7455 fps=438 q=-0.0 size=N/A time=00:05:10.93 bitrate=N/A speed=18.3x    frame= 7682 fps=438 q=-0.0 size=N/A time=00:05:20.40 bitrate=N/A speed=18.3x    frame= 7889 fps=437 q=-0.0 size=N/A time=00:05:29.03 bitrate=N/A speed=18.2x    frame= 8065 fps=434 q=-0.0 size=N/A time=00:05:36.37 bitrate=N/A speed=18.1x    frame= 8258 fps=433 q=-0.0 size=N/A time=00:05:44.42 bitrate=N/A speed=  18x    frame= 8440 fps=431 q=-0.0 size=N/A time=00:05:52.01 bitrate=N/A speed=  18x    frame= 8670 fps=431 q=-0.0 size=N/A time=00:06:01.61 bitrate=N/A speed=  18x    frame= 8883 fps=431 q=-0.0 size=N/A time=00:06:10.49 bitrate=N/A speed=  18x    frame= 9104 fps=431 q=-0.0 size=N/A time=00:06:19.71 bitrate=N/A speed=  18x    frame= 9344 fps=431 q=-0.0 size=N/A time=00:06:29.72 bitrate=N/A speed=  18x    frame= 9574 fps=432 q=-0.0 size=N/A time=00:06:39.31 bitrate=N/A speed=  18x    frame= 9765 fps=430 q=-0.0 size=N/A time=00:06:47.28 bitrate=N/A speed=17.9x    frame=10004 fps=431 q=-0.0 size=N/A time=00:06:57.25 bitrate=N/A speed=  18x    frame=10227 fps=431 q=-0.0 size=N/A time=00:07:06.55 bitrate=N/A speed=  18x    frame=10457 fps=431 q=-0.0 size=N/A time=00:07:16.14 bitrate=N/A speed=  18x    frame=10633 fps=430 q=-0.0 size=N/A time=00:07:23.48 bitrate=N/A speed=17.9x    frame=10856 fps=430 q=-0.0 size=N/A time=00:07:32.78 bitrate=N/A speed=17.9x    frame=11091 fps=430 q=-0.0 size=N/A time=00:07:42.58 bitrate=N/A speed=17.9x    frame=11245 fps=427 q=-0.0 size=N/A time=00:07:49.01 bitrate=N/A speed=17.8x    frame=11416 fps=426 q=-0.0 size=N/A time=00:07:56.14 bitrate=N/A speed=17.8x    frame=11657 fps=426 q=-0.0 size=N/A time=00:08:06.19 bitrate=N/A speed=17.8x    frame=11875 fps=426 q=-0.0 size=N/A time=00:08:15.28 bitrate=N/A speed=17.8x    frame=12128 fps=428 q=-0.0 size=N/A time=00:08:25.83 bitrate=N/A speed=17.8x    frame=12355 fps=428 q=-0.0 size=N/A time=00:08:35.30 bitrate=N/A speed=17.8x    frame=12606 fps=429 q=-0.0 size=N/A time=00:08:45.77 bitrate=N/A speed=17.9x    frame=12819 fps=428 q=-0.0 size=N/A time=00:08:54.65 bitrate=N/A speed=17.9x    frame=12996 fps=427 q=-0.0 size=N/A time=00:09:02.04 bitrate=N/A speed=17.8x    frame=13209 fps=427 q=-0.0 size=N/A time=00:09:10.92 bitrate=N/A speed=17.8x    frame=13424 fps=426 q=-0.0 size=N/A time=00:09:19.89 bitrate=N/A speed=17.8x    frame=13651 fps=427 q=-0.0 size=N/A time=00:09:29.36 bitrate=N/A speed=17.8x    frame=13852 fps=426 q=-0.0 size=N/A time=00:09:37.74 bitrate=N/A speed=17.8x    frame=14069 fps=426 q=-0.0 size=N/A time=00:09:46.79 bitrate=N/A speed=17.8x    frame=14296 fps=426 q=-0.0 size=N/A time=00:09:56.26 bitrate=N/A speed=17.8x    frame=14512 fps=426 q=-0.0 size=N/A time=00:10:05.27 bitrate=N/A speed=17.8x    frame=14701 fps=425 q=-0.0 size=N/A time=00:10:13.15 bitrate=N/A speed=17.7x    frame=14909 fps=425 q=-0.0 size=N/A time=00:10:21.82 bitrate=N/A speed=17.7x    frame=15148 fps=425 q=-0.0 size=N/A time=00:10:31.79 bitrate=N/A speed=17.7x    frame=15365 fps=425 q=-0.0 size=N/A time=00:10:40.84 bitrate=N/A speed=17.7x    frame=15610 fps=426 q=-0.0 size=N/A time=00:10:51.06 bitrate=N/A speed=17.8x    frame=15863 fps=427 q=-0.0 size=N/A time=00:11:01.61 bitrate=N/A speed=17.8x    frame=16109 fps=428 q=-0.0 size=N/A time=00:11:11.87 bitrate=N/A speed=17.8x    frame=16360 fps=429 q=-0.0 size=N/A time=00:11:22.34 bitrate=N/A speed=17.9x    frame=16629 fps=430 q=-0.0 size=N/A time=00:11:33.56 bitrate=N/A speed=17.9x    frame=16880 fps=431 q=-0.0 size=N/A time=00:11:44.03 bitrate=N/A speed=  18x    frame=17153 fps=432 q=-0.0 size=N/A time=00:11:55.42 bitrate=N/A speed=  18x    frame=17379 fps=432 q=-0.0 size=N/A time=00:12:04.84 bitrate=N/A speed=  18x    frame=17627 fps=432 q=-0.0 size=N/A time=00:12:15.19 bitrate=N/A speed=  18x    frame=17900 fps=434 q=-0.0 size=N/A time=00:12:26.57 bitrate=N/A speed=18.1x    frame=18158 fps=434 q=-0.0 size=N/A time=00:12:37.33 bitrate=N/A speed=18.1x    frame=18421 fps=435 q=-0.0 size=N/A time=00:12:48.30 bitrate=N/A speed=18.2x    frame=18662 fps=436 q=-0.0 size=N/A time=00:12:58.36 bitrate=N/A speed=18.2x    frame=18896 fps=436 q=-0.0 size=N/A time=00:13:08.12 bitrate=N/A speed=18.2x    frame=19151 fps=437 q=-0.0 size=N/A time=00:13:18.75 bitrate=N/A speed=18.2x    frame=19396 fps=437 q=-0.0 size=N/A time=00:13:28.97 bitrate=N/A speed=18.2x    frame=19636 fps=437 q=-0.0 size=N/A time=00:13:38.98 bitrate=N/A speed=18.2x    frame=19890 fps=438 q=-0.0 size=N/A time=00:13:49.57 bitrate=N/A speed=18.3x    frame=20127 fps=438 q=-0.0 size=N/A time=00:13:59.50 bitrate=N/A speed=18.3x    frame=20346 fps=438 q=-0.0 size=N/A time=00:14:08.59 bitrate=N/A speed=18.3x    frame=20555 fps=438 q=-0.0 size=N/A time=00:14:17.31 bitrate=N/A speed=18.3x    frame=20764 fps=437 q=-0.0 size=N/A time=00:14:26.03 bitrate=N/A speed=18.2x    frame=20977 fps=437 q=-0.0 size=N/A time=00:14:34.91 bitrate=N/A speed=18.2x    frame=21193 fps=437 q=-0.0 size=N/A time=00:14:43.92 bitrate=N/A speed=18.2x    frame=21406 fps=437 q=-0.0 size=N/A time=00:14:52.80 bitrate=N/A speed=18.2x    frame=21586 fps=436 q=-0.0 size=N/A time=00:15:00.31 bitrate=N/A speed=18.2x    frame=21810 fps=436 q=-0.0 size=N/A time=00:15:09.65 bitrate=N/A speed=18.2x    frame=22059 fps=436 q=-0.0 size=N/A time=00:15:20.04 bitrate=N/A speed=18.2x    frame=22302 fps=436 q=-0.0 size=N/A time=00:15:30.17 bitrate=N/A speed=18.2x    frame=22549 fps=437 q=-0.0 size=N/A time=00:15:40.48 bitrate=N/A speed=18.2x    frame=22810 fps=438 q=-0.0 size=N/A time=00:15:51.36 bitrate=N/A speed=18.3x    frame=23086 fps=439 q=-0.0 size=N/A time=00:16:02.87 bitrate=N/A speed=18.3x    frame=23327 fps=439 q=-0.0 size=N/A time=00:16:12.93 bitrate=N/A speed=18.3x    frame=23531 fps=439 q=-0.0 size=N/A time=00:16:21.43 bitrate=N/A speed=18.3x    frame=23734 fps=438 q=-0.0 size=N/A time=00:16:29.90 bitrate=N/A speed=18.3x    frame=23923 fps=437 q=-0.0 size=N/A time=00:16:37.78 bitrate=N/A speed=18.2x    frame=24147 fps=437 q=-0.0 size=N/A time=00:16:47.13 bitrate=N/A speed=18.2x    frame=24365 fps=437 q=-0.0 size=N/A time=00:16:56.22 bitrate=N/A speed=18.2x    frame=24568 fps=437 q=-0.0 size=N/A time=00:17:04.73 bitrate=N/A speed=18.2x    frame=24780 fps=437 q=-0.0 size=N/A time=00:17:13.53 bitrate=N/A speed=18.2x    frame=24912 fps=435 q=-0.0 size=N/A time=00:17:19.03 bitrate=N/A speed=18.1x    frame=25087 fps=434 q=-0.0 size=N/A time=00:17:26.33 bitrate=N/A speed=18.1x    frame=25289 fps=434 q=-0.0 size=N/A time=00:17:34.76 bitrate=N/A speed=18.1x    frame=25501 fps=434 q=-0.0 size=N/A time=00:17:43.60 bitrate=N/A speed=18.1x    frame=25719 fps=433 q=-0.0 size=N/A time=00:17:52.69 bitrate=N/A speed=18.1x    frame=25949 fps=434 q=-0.0 size=N/A time=00:18:02.28 bitrate=N/A speed=18.1x    frame=26152 fps=433 q=-0.0 size=N/A time=00:18:10.75 bitrate=N/A speed=18.1x    frame=26388 fps=433 q=-0.0 size=N/A time=00:18:20.59 bitrate=N/A speed=18.1x    frame=26630 fps=434 q=-0.0 size=N/A time=00:18:30.69 bitrate=N/A speed=18.1x    frame=26846 fps=434 q=-0.0 size=N/A time=00:18:39.70 bitrate=N/A speed=18.1x    frame=27050 fps=433 q=-0.0 size=N/A time=00:18:48.21 bitrate=N/A speed=18.1x    frame=27246 fps=433 q=-0.0 size=N/A time=00:18:56.38 bitrate=N/A speed=18.1x    frame=27441 fps=432 q=-0.0 size=N/A time=00:19:04.51 bitrate=N/A speed=  18x    frame=27624 fps=432 q=-0.0 size=N/A time=00:19:12.15 bitrate=N/A speed=  18x    frame=27828 fps=432 q=-0.0 size=N/A time=00:19:20.65 bitrate=N/A speed=  18x    frame=28049 fps=431 q=-0.0 size=N/A time=00:19:29.87 bitrate=N/A speed=  18x    frame=28297 fps=432 q=-0.0 size=N/A time=00:19:40.22 bitrate=N/A speed=  18x    frame=28538 fps=432 q=-0.0 size=N/A time=00:19:50.27 bitrate=N/A speed=  18x    frame=28694 fps=431 q=-0.0 size=N/A time=00:19:56.77 bitrate=N/A speed=  18x    frame=28897 fps=431 q=-0.0 size=N/A time=00:20:05.24 bitrate=N/A speed=  18x    frame=29126 fps=431 q=-0.0 size=N/A time=00:20:14.79 bitrate=N/A speed=  18x    frame=29356 fps=431 q=-0.0 size=N/A time=00:20:24.38 bitrate=N/A speed=  18x    frame=29566 fps=431 q=-0.0 size=N/A time=00:20:33.14 bitrate=N/A speed=  18x    frame=29813 fps=431 q=-0.0 size=N/A time=00:20:43.45 bitrate=N/A speed=  18x    frame=30042 fps=431 q=-0.0 size=N/A time=00:20:53.00 bitrate=N/A speed=  18x    frame=30256 fps=431 q=-0.0 size=N/A time=00:21:01.92 bitrate=N/A speed=  18x    frame=30442 fps=431 q=-0.0 size=N/A time=00:21:09.68 bitrate=N/A speed=  18x    frame=30687 fps=431 q=-0.0 size=N/A time=00:21:19.90 bitrate=N/A speed=  18x    frame=30905 fps=431 q=-0.0 size=N/A time=00:21:28.99 bitrate=N/A speed=  18x    frame=31129 fps=431 q=-0.0 size=N/A time=00:21:38.33 bitrate=N/A speed=  18x    frame=31335 fps=431 q=-0.0 size=N/A time=00:21:46.93 bitrate=N/A speed=  18x    frame=31542 fps=431 q=-0.0 size=N/A time=00:21:55.56 bitrate=N/A speed=  18x    frame=31736 fps=430 q=-0.0 size=N/A time=00:22:03.65 bitrate=N/A speed=17.9x    frame=31935 fps=430 q=-0.0 size=N/A time=00:22:11.95 bitrate=N/A speed=17.9x    frame=32126 fps=429 q=-0.0 size=N/A time=00:22:19.92 bitrate=N/A speed=17.9x    frame=32316 fps=429 q=-0.0 size=N/A time=00:22:27.84 bitrate=N/A speed=17.9x    frame=32501 fps=429 q=-0.0 size=N/A time=00:22:35.56 bitrate=N/A speed=17.9x    frame=32700 fps=428 q=-0.0 size=N/A time=00:22:43.86 bitrate=N/A speed=17.9x    frame=32913 fps=428 q=-0.0 size=N/A time=00:22:52.74 bitrate=N/A speed=17.9x    frame=33088 fps=428 q=-0.0 size=N/A time=00:23:00.04 bitrate=N/A speed=17.8x    frame=33251 fps=427 q=-0.0 size=N/A time=00:23:06.84 bitrate=N/A speed=17.8x    frame=33431 fps=426 q=-0.0 size=N/A time=00:23:14.35 bitrate=N/A speed=17.8x    frame=33649 fps=426 q=-0.0 size=N/A time=00:23:23.44 bitrate=N/A speed=17.8x    frame=33863 fps=426 q=-0.0 size=N/A time=00:23:32.36 bitrate=N/A speed=17.8x    frame=34075 fps=426 q=-0.0 size=N/A time=00:23:41.21 bitrate=N/A speed=17.8x    frame=34287 fps=426 q=-0.0 size=N/A time=00:23:50.05 bitrate=N/A speed=17.8x    frame=34470 fps=426 q=-0.0 size=N/A time=00:23:57.68 bitrate=N/A speed=17.8x    frame=34712 fps=426 q=-0.0 size=N/A time=00:24:07.77 bitrate=N/A speed=17.8x    frame=34916 fps=426 q=-0.0 size=N/A time=00:24:16.28 bitrate=N/A speed=17.8x    frame=35108 fps=425 q=-0.0 size=N/A time=00:24:24.29 bitrate=N/A speed=17.7x    frame=35288 fps=425 q=-0.0 size=N/A time=00:24:31.80 bitrate=N/A speed=17.7x    frame=35481 fps=425 q=-0.0 size=N/A time=00:24:39.85 bitrate=N/A speed=17.7x    frame=35655 fps=424 q=-0.0 size=N/A time=00:24:47.11 bitrate=N/A speed=17.7x    frame=35837 fps=424 q=-0.0 size=N/A time=00:24:54.70 bitrate=N/A speed=17.7x    frame=36027 fps=423 q=-0.0 size=N/A time=00:25:02.62 bitrate=N/A speed=17.7x    frame=36210 fps=423 q=-0.0 size=N/A time=00:25:10.25 bitrate=N/A speed=17.6x    frame=36388 fps=422 q=-0.0 size=N/A time=00:25:17.68 bitrate=N/A speed=17.6x    frame=36560 fps=422 q=-0.0 size=N/A time=00:25:24.85 bitrate=N/A speed=17.6x    frame=36738 fps=421 q=-0.0 size=N/A time=00:25:32.28 bitrate=N/A speed=17.6x    frame=36903 fps=421 q=-0.0 size=N/A time=00:25:39.16 bitrate=N/A speed=17.6x    frame=37090 fps=420 q=-0.0 size=N/A time=00:25:46.96 bitrate=N/A speed=17.5x    frame=37252 fps=420 q=-0.0 size=N/A time=00:25:53.71 bitrate=N/A speed=17.5x    frame=37465 fps=420 q=-0.0 size=N/A time=00:26:02.60 bitrate=N/A speed=17.5x    frame=37642 fps=419 q=-0.0 size=N/A time=00:26:09.98 bitrate=N/A speed=17.5x    frame=37844 fps=419 q=-0.0 size=N/A time=00:26:18.41 bitrate=N/A speed=17.5x    frame=38084 fps=419 q=-0.0 size=N/A time=00:26:28.42 bitrate=N/A speed=17.5x    frame=38307 fps=420 q=-0.0 size=N/A time=00:26:37.72 bitrate=N/A speed=17.5x    frame=38515 fps=419 q=-0.0 size=N/A time=00:26:46.39 bitrate=N/A speed=17.5x    frame=38693 fps=419 q=-0.0 size=N/A time=00:26:53.82 bitrate=N/A speed=17.5x    frame=38884 fps=419 q=-0.0 size=N/A time=00:27:01.78 bitrate=N/A speed=17.5x    frame=39075 fps=419 q=-0.0 size=N/A time=00:27:09.75 bitrate=N/A speed=17.5x    frame=39272 fps=418 q=-0.0 size=N/A time=00:27:17.96 bitrate=N/A speed=17.4x    frame=39501 fps=418 q=-0.0 size=N/A time=00:27:27.52 bitrate=N/A speed=17.5x    frame=39713 fps=418 q=-0.0 size=N/A time=00:27:36.36 bitrate=N/A speed=17.4x    frame=39961 fps=419 q=-0.0 size=N/A time=00:27:46.70 bitrate=N/A speed=17.5x    frame=40178 fps=419 q=-0.0 size=N/A time=00:27:55.75 bitrate=N/A speed=17.5x    frame=40395 fps=419 q=-0.0 size=N/A time=00:28:04.80 bitrate=N/A speed=17.5x    frame=40592 fps=419 q=-0.0 size=N/A time=00:28:13.02 bitrate=N/A speed=17.5x    frame=40810 fps=419 q=-0.0 size=N/A time=00:28:22.11 bitrate=N/A speed=17.5x    frame=41015 fps=418 q=-0.0 size=N/A time=00:28:30.66 bitrate=N/A speed=17.5x    frame=41232 fps=418 q=-0.0 size=N/A time=00:28:39.71 bitrate=N/A speed=17.5x    frame=41462 fps=419 q=-0.0 size=N/A time=00:28:49.31 bitrate=N/A speed=17.5x    frame=41666 fps=418 q=-0.0 size=N/A time=00:28:57.81 bitrate=N/A speed=17.5x    frame=41918 fps=419 q=-0.0 size=N/A time=00:29:08.32 bitrate=N/A speed=17.5x    frame=42171 fps=419 q=-0.0 size=N/A time=00:29:18.88 bitrate=N/A speed=17.5x    frame=42394 fps=419 q=-0.0 size=N/A time=00:29:28.18 bitrate=N/A speed=17.5x    frame=42637 fps=420 q=-0.0 size=N/A time=00:29:38.31 bitrate=N/A speed=17.5x    frame=42874 fps=420 q=-0.0 size=N/A time=00:29:48.20 bitrate=N/A speed=17.5x    frame=43118 fps=420 q=-0.0 size=N/A time=00:29:58.37 bitrate=N/A speed=17.5x    frame=43359 fps=420 q=-0.0 size=N/A time=00:30:08.43 bitrate=N/A speed=17.5x    frame=43606 fps=421 q=-0.0 size=N/A time=00:30:18.73 bitrate=N/A speed=17.5x    frame=43841 fps=421 q=-0.0 size=N/A time=00:30:28.53 bitrate=N/A speed=17.5x    frame=44041 fps=421 q=-0.0 size=N/A time=00:30:36.87 bitrate=N/A speed=17.5x    frame=44251 fps=420 q=-0.0 size=N/A time=00:30:45.63 bitrate=N/A speed=17.5x    frame=44453 fps=420 q=-0.0 size=N/A time=00:30:54.06 bitrate=N/A speed=17.5x    frame=44686 fps=420 q=-0.0 size=N/A time=00:31:03.77 bitrate=N/A speed=17.5x    frame=44935 fps=421 q=-0.0 size=N/A time=00:31:14.16 bitrate=N/A speed=17.5x    frame=45175 fps=421 q=-0.0 size=N/A time=00:31:24.17 bitrate=N/A speed=17.6x    frame=45418 fps=421 q=-0.0 size=N/A time=00:31:34.30 bitrate=N/A speed=17.6x    frame=45652 fps=421 q=-0.0 size=N/A time=00:31:44.06 bitrate=N/A speed=17.6x    frame=45848 fps=421 q=-0.0 size=N/A time=00:31:52.24 bitrate=N/A speed=17.6x    frame=46056 fps=421 q=-0.0 size=N/A time=00:32:00.91 bitrate=N/A speed=17.6x    frame=46300 fps=421 q=-0.0 size=N/A time=00:32:11.09 bitrate=N/A speed=17.6x    frame=46521 fps=421 q=-0.0 size=N/A time=00:32:20.31 bitrate=N/A speed=17.6x    frame=46726 fps=421 q=-0.0 size=N/A time=00:32:28.86 bitrate=N/A speed=17.6x    frame=46965 fps=421 q=-0.0 size=N/A time=00:32:38.83 bitrate=N/A speed=17.6x    frame=47178 fps=421 q=-0.0 size=N/A time=00:32:47.71 bitrate=N/A speed=17.6x    frame=47398 fps=421 q=-0.0 size=N/A time=00:32:56.89 bitrate=N/A speed=17.6x    frame=47659 fps=422 q=-0.0 size=N/A time=00:33:07.77 bitrate=N/A speed=17.6x    frame=47894 fps=422 q=-0.0 size=N/A time=00:33:17.57 bitrate=N/A speed=17.6x    frame=48125 fps=422 q=-0.0 size=N/A time=00:33:27.21 bitrate=N/A speed=17.6x    frame=48332 fps=422 q=-0.0 size=N/A time=00:33:35.84 bitrate=N/A speed=17.6x    frame=48549 fps=422 q=-0.0 size=N/A time=00:33:44.89 bitrate=N/A speed=17.6x    frame=48791 fps=422 q=-0.0 size=N/A time=00:33:54.99 bitrate=N/A speed=17.6x    frame=48973 fps=422 q=-0.0 size=N/A time=00:34:02.58 bitrate=N/A speed=17.6x    frame=49171 fps=422 q=-0.0 size=N/A time=00:34:10.84 bitrate=N/A speed=17.6x    frame=49374 fps=422 q=-0.0 size=N/A time=00:34:19.30 bitrate=N/A speed=17.6x    frame=49581 fps=422 q=-0.0 size=N/A time=00:34:27.94 bitrate=N/A speed=17.6x    frame=49797 fps=422 q=-0.0 size=N/A time=00:34:36.94 bitrate=N/A speed=17.6x    frame=50017 fps=422 q=-0.0 size=N/A time=00:34:46.12 bitrate=N/A speed=17.6x    frame=50238 fps=422 q=-0.0 size=N/A time=00:34:55.34 bitrate=N/A speed=17.6x    frame=50454 fps=422 q=-0.0 size=N/A time=00:35:04.35 bitrate=N/A speed=17.6x    frame=50685 fps=422 q=-0.0 size=N/A time=00:35:13.98 bitrate=N/A speed=17.6x    frame=50860 fps=421 q=-0.0 size=N/A time=00:35:21.28 bitrate=N/A speed=17.6x    frame=51093 fps=421 q=-0.0 size=N/A time=00:35:31.00 bitrate=N/A speed=17.6x    frame=51336 fps=422 q=-0.0 size=N/A time=00:35:41.13 bitrate=N/A speed=17.6x    frame=51546 fps=422 q=-0.0 size=N/A time=00:35:49.89 bitrate=N/A speed=17.6x    frame=51749 fps=421 q=-0.0 size=N/A time=00:35:58.36 bitrate=N/A speed=17.6x    frame=51976 fps=422 q=-0.0 size=N/A time=00:36:07.83 bitrate=N/A speed=17.6x    frame=52187 fps=421 q=-0.0 size=N/A time=00:36:16.63 bitrate=N/A speed=17.6x    frame=52383 fps=421 q=-0.0 size=N/A time=00:36:24.80 bitrate=N/A speed=17.6x    frame=52595 fps=421 q=-0.0 size=N/A time=00:36:33.64 bitrate=N/A speed=17.6x    frame=52856 fps=422 q=-0.0 size=N/A time=00:36:44.53 bitrate=N/A speed=17.6x    frame=53067 fps=422 q=-0.0 size=N/A time=00:36:53.33 bitrate=N/A speed=17.6x    frame=53266 fps=421 q=-0.0 size=N/A time=00:37:01.63 bitrate=N/A speed=17.6x    frame=53491 fps=421 q=-0.0 size=N/A time=00:37:11.02 bitrate=N/A speed=17.6x    frame=53727 fps=422 q=-0.0 size=N/A time=00:37:20.86 bitrate=N/A speed=17.6x    frame=53951 fps=422 q=-0.0 size=N/A time=00:37:30.20 bitrate=N/A speed=17.6x    frame=54138 fps=421 q=-0.0 size=N/A time=00:37:38.00 bitrate=N/A speed=17.6x    frame=54359 fps=421 q=-0.0 size=N/A time=00:37:47.22 bitrate=N/A speed=17.6x    frame=54596 fps=422 q=-0.0 size=N/A time=00:37:57.10 bitrate=N/A speed=17.6x    frame=54847 fps=422 q=-0.0 size=N/A time=00:38:07.57 bitrate=N/A speed=17.6x    frame=55082 fps=422 q=-0.0 size=N/A time=00:38:17.37 bitrate=N/A speed=17.6x    frame=55257 fps=422 q=-0.0 size=N/A time=00:38:24.67 bitrate=N/A speed=17.6x    frame=55455 fps=422 q=-0.0 size=N/A time=00:38:32.93 bitrate=N/A speed=17.6x    frame=55687 fps=422 q=-0.0 size=N/A time=00:38:42.61 bitrate=N/A speed=17.6x    frame=55896 fps=422 q=-0.0 size=N/A time=00:38:51.32 bitrate=N/A speed=17.6x    frame=56116 fps=422 q=-0.0 size=N/A time=00:39:00.50 bitrate=N/A speed=17.6x    frame=56367 fps=422 q=-0.0 size=N/A time=00:39:10.97 bitrate=N/A speed=17.6x    frame=56610 fps=422 q=-0.0 size=N/A time=00:39:21.10 bitrate=N/A speed=17.6x    frame=56808 fps=422 q=-0.0 size=N/A time=00:39:29.36 bitrate=N/A speed=17.6x    frame=57026 fps=422 q=-0.0 size=N/A time=00:39:38.45 bitrate=N/A speed=17.6x    frame=57264 fps=422 q=-0.0 size=N/A time=00:39:48.38 bitrate=N/A speed=17.6x    frame=57480 fps=422 q=-0.0 size=N/A time=00:39:57.39 bitrate=N/A speed=17.6x    frame=57667 fps=422 q=-0.0 size=N/A time=00:40:05.19 bitrate=N/A speed=17.6x    frame=57879 fps=422 q=-0.0 size=N/A time=00:40:14.03 bitrate=N/A speed=17.6x    frame=58109 fps=422 q=-0.0 size=N/A time=00:40:23.62 bitrate=N/A speed=17.6x    frame=58334 fps=422 q=-0.0 size=N/A time=00:40:33.01 bitrate=N/A speed=17.6x    frame=58555 fps=422 q=-0.0 size=N/A time=00:40:42.23 bitrate=N/A speed=17.6x    frame=58748 fps=422 q=-0.0 size=N/A time=00:40:50.28 bitrate=N/A speed=17.6x    frame=58921 fps=421 q=-0.0 size=N/A time=00:40:57.49 bitrate=N/A speed=17.6x    frame=59091 fps=421 q=-0.0 size=N/A time=00:41:04.58 bitrate=N/A speed=17.6x    frame=59249 fps=421 q=-0.0 size=N/A time=00:41:11.17 bitrate=N/A speed=17.5x    frame=59445 fps=420 q=-0.0 size=N/A time=00:41:19.35 bitrate=N/A speed=17.5x    frame=59635 fps=420 q=-0.0 size=N/A time=00:41:27.27 bitrate=N/A speed=17.5x    frame=59836 fps=420 q=-0.0 size=N/A time=00:41:35.65 bitrate=N/A speed=17.5x    frame=60023 fps=420 q=-0.0 size=N/A time=00:41:43.45 bitrate=N/A speed=17.5x    frame=60254 fps=420 q=-0.0 size=N/A time=00:41:53.09 bitrate=N/A speed=17.5x    frame=60487 fps=420 q=-0.0 size=N/A time=00:42:02.81 bitrate=N/A speed=17.5x    frame=60698 fps=420 q=-0.0 size=N/A time=00:42:11.61 bitrate=N/A speed=17.5x    frame=60864 fps=420 q=-0.0 size=N/A time=00:42:18.53 bitrate=N/A speed=17.5x    frame=61044 fps=420 q=-0.0 size=N/A time=00:42:26.04 bitrate=N/A speed=17.5x    frame=61244 fps=419 q=-0.0 size=N/A time=00:42:34.38 bitrate=N/A speed=17.5x    frame=61419 fps=419 q=-0.0 size=N/A time=00:42:41.68 bitrate=N/A speed=17.5x    frame=61627 fps=419 q=-0.0 size=N/A time=00:42:50.35 bitrate=N/A speed=17.5x    frame=61838 fps=419 q=-0.0 size=N/A time=00:42:59.15 bitrate=N/A speed=17.5x    frame=62028 fps=419 q=-0.0 size=N/A time=00:43:07.08 bitrate=N/A speed=17.5x    frame=62242 fps=419 q=-0.0 size=N/A time=00:43:16.01 bitrate=N/A speed=17.5x    frame=62467 fps=419 q=-0.0 size=N/A time=00:43:25.39 bitrate=N/A speed=17.5x    frame=62688 fps=419 q=-0.0 size=N/A time=00:43:34.61 bitrate=N/A speed=17.5x    frame=62914 fps=419 q=-0.0 size=N/A time=00:43:44.03 bitrate=N/A speed=17.5x    frame=63099 fps=419 q=-0.0 size=N/A time=00:43:51.75 bitrate=N/A speed=17.5x    frame=63351 fps=419 q=-0.0 size=N/A time=00:44:02.26 bitrate=N/A speed=17.5x    frame=63559 fps=419 q=-0.0 size=N/A time=00:44:10.93 bitrate=N/A speed=17.5x    frame=63773 fps=419 q=-0.0 size=N/A time=00:44:19.86 bitrate=N/A speed=17.5x    frame=64005 fps=419 q=-0.0 size=N/A time=00:44:29.54 bitrate=N/A speed=17.5x    frame=64206 fps=419 q=-0.0 size=N/A time=00:44:37.92 bitrate=N/A speed=17.5x    frame=64464 fps=419 q=-0.0 size=N/A time=00:44:48.68 bitrate=N/A speed=17.5x    frame=64684 fps=419 q=-0.0 size=N/A time=00:44:57.86 bitrate=N/A speed=17.5x    frame=64866 fps=419 q=-0.0 size=N/A time=00:45:05.45 bitrate=N/A speed=17.5x    frame=65053 fps=419 q=-0.0 size=N/A time=00:45:13.25 bitrate=N/A speed=17.5x    frame=65250 fps=419 q=-0.0 size=N/A time=00:45:21.46 bitrate=N/A speed=17.5x    frame=65424 fps=419 q=-0.0 size=N/A time=00:45:28.72 bitrate=N/A speed=17.5x    frame=65593 fps=418 q=-0.0 size=N/A time=00:45:35.77 bitrate=N/A speed=17.4x    frame=65797 fps=418 q=-0.0 size=N/A time=00:45:44.28 bitrate=N/A speed=17.4x    frame=66006 fps=418 q=-0.0 size=N/A time=00:45:53.00 bitrate=N/A speed=17.4x    frame=66163 fps=418 q=-0.0 size=N/A time=00:45:59.54 bitrate=N/A speed=17.4x    frame=66373 fps=418 q=-0.0 size=N/A time=00:46:08.30 bitrate=N/A speed=17.4x    frame=66586 fps=418 q=-0.0 size=N/A time=00:46:17.19 bitrate=N/A speed=17.4x    frame=66794 fps=418 q=-0.0 size=N/A time=00:46:25.86 bitrate=N/A speed=17.4x    frame=67010 fps=418 q=-0.0 size=N/A time=00:46:34.87 bitrate=N/A speed=17.4x    frame=67202 fps=417 q=-0.0 size=N/A time=00:46:42.88 bitrate=N/A speed=17.4x    frame=67389 fps=417 q=-0.0 size=N/A time=00:46:50.68 bitrate=N/A speed=17.4x    frame=67584 fps=417 q=-0.0 size=N/A time=00:46:58.81 bitrate=N/A speed=17.4x    frame=67815 fps=417 q=-0.0 size=N/A time=00:47:08.45 bitrate=N/A speed=17.4x    frame=68027 fps=417 q=-0.0 size=N/A time=00:47:17.29 bitrate=N/A speed=17.4x    frame=68236 fps=417 q=-0.0 size=N/A time=00:47:26.00 bitrate=N/A speed=17.4x    frame=68458 fps=417 q=-0.0 size=N/A time=00:47:35.26 bitrate=N/A speed=17.4x    frame=68670 fps=417 q=-0.0 size=N/A time=00:47:44.11 bitrate=N/A speed=17.4x    frame=68885 fps=417 q=-0.0 size=N/A time=00:47:53.07 bitrate=N/A speed=17.4x    frame=69100 fps=417 q=-0.0 size=N/A time=00:48:02.04 bitrate=N/A speed=17.4x    frame=69329 fps=417 q=-0.0 size=N/A time=00:48:11.59 bitrate=N/A speed=17.4x    frame=69535 fps=417 q=-0.0 size=N/A time=00:48:20.18 bitrate=N/A speed=17.4x    frame=69728 fps=417 q=-0.0 size=N/A time=00:48:28.23 bitrate=N/A speed=17.4x    frame=69925 fps=417 q=-0.0 size=N/A time=00:48:36.45 bitrate=N/A speed=17.4x    frame=70133 fps=417 q=-0.0 size=N/A time=00:48:45.13 bitrate=N/A speed=17.4x    frame=70338 fps=417 q=-0.0 size=N/A time=00:48:53.68 bitrate=N/A speed=17.4x    frame=70496 fps=417 q=-0.0 size=N/A time=00:49:00.27 bitrate=N/A speed=17.4x    frame=70618 fps=416 q=-0.0 size=N/A time=00:49:05.35 bitrate=N/A speed=17.4x    frame=70764 fps=416 q=-0.0 size=N/A time=00:49:11.44 bitrate=N/A speed=17.3x    frame=70895 fps=415 q=-0.0 size=N/A time=00:49:16.91 bitrate=N/A speed=17.3x    frame=71022 fps=415 q=-0.0 size=N/A time=00:49:22.20 bitrate=N/A speed=17.3x    frame=71174 fps=414 q=-0.0 size=N/A time=00:49:28.54 bitrate=N/A speed=17.3x    frame=71330 fps=414 q=-0.0 size=N/A time=00:49:35.05 bitrate=N/A speed=17.3x    frame=71488 fps=414 q=-0.0 size=N/A time=00:49:41.64 bitrate=N/A speed=17.3x    frame=71700 fps=414 q=-0.0 size=N/A time=00:49:50.48 bitrate=N/A speed=17.3x    frame=71900 fps=414 q=-0.0 size=N/A time=00:49:58.82 bitrate=N/A speed=17.2x    frame=72108 fps=414 q=-0.0 size=N/A time=00:50:07.50 bitrate=N/A speed=17.2x    frame=72339 fps=414 q=-0.0 size=N/A time=00:50:17.13 bitrate=N/A speed=17.3x    frame=72544 fps=414 q=-0.0 size=N/A time=00:50:25.68 bitrate=N/A speed=17.2x    frame=72740 fps=414 q=-0.0 size=N/A time=00:50:33.86 bitrate=N/A speed=17.2x    frame=72930 fps=413 q=-0.0 size=N/A time=00:50:41.78 bitrate=N/A speed=17.2x    frame=73133 fps=413 q=-0.0 size=N/A time=00:50:50.25 bitrate=N/A speed=17.2x    frame=73333 fps=413 q=-0.0 size=N/A time=00:50:58.59 bitrate=N/A speed=17.2x    frame=73533 fps=413 q=-0.0 size=N/A time=00:51:06.93 bitrate=N/A speed=17.2x    frame=73742 fps=413 q=-0.0 size=N/A time=00:51:15.65 bitrate=N/A speed=17.2x    frame=73955 fps=413 q=-0.0 size=N/A time=00:51:24.53 bitrate=N/A speed=17.2x    frame=74177 fps=413 q=-0.0 size=N/A time=00:51:33.79 bitrate=N/A speed=17.2x    frame=74408 fps=413 q=-0.0 size=N/A time=00:51:43.43 bitrate=N/A speed=17.2x    frame=74668 fps=414 q=-0.0 size=N/A time=00:51:54.27 bitrate=N/A speed=17.2x    frame=74895 fps=414 q=-0.0 size=N/A time=00:52:03.74 bitrate=N/A speed=17.3x    frame=75090 fps=414 q=-0.0 size=N/A time=00:52:11.87 bitrate=N/A speed=17.2x    frame=75307 fps=414 q=-0.0 size=N/A time=00:52:20.92 bitrate=N/A speed=17.2x    frame=75544 fps=414 q=-0.0 size=N/A time=00:52:30.81 bitrate=N/A speed=17.3x    frame=75777 fps=414 q=-0.0 size=N/A time=00:52:40.53 bitrate=N/A speed=17.3x    frame=76006 fps=414 q=-0.0 size=N/A time=00:52:50.08 bitrate=N/A speed=17.3x    frame=76229 fps=414 q=-0.0 size=N/A time=00:52:59.38 bitrate=N/A speed=17.3x    frame=76479 fps=414 q=-0.0 size=N/A time=00:53:09.81 bitrate=N/A speed=17.3x    frame=76728 fps=414 q=-0.0 size=N/A time=00:53:20.19 bitrate=N/A speed=17.3x    frame=76993 fps=415 q=-0.0 size=N/A time=00:53:31.24 bitrate=N/A speed=17.3x    frame=77256 fps=415 q=-0.0 size=N/A time=00:53:42.21 bitrate=N/A speed=17.3x    frame=77507 fps=415 q=-0.0 size=N/A time=00:53:52.68 bitrate=N/A speed=17.3x    frame=77784 fps=415 q=-0.0 size=N/A time=00:54:04.24 bitrate=N/A speed=17.3x    frame=77959 fps=415 q=-0.0 size=N/A time=00:54:11.53 bitrate=N/A speed=17.3x    frame=78146 fps=415 q=-0.0 size=N/A time=00:54:19.33 bitrate=N/A speed=17.3x    frame=78337 fps=415 q=-0.0 size=N/A time=00:54:27.30 bitrate=N/A speed=17.3x    frame=78506 fps=415 q=-0.0 size=N/A time=00:54:34.35 bitrate=N/A speed=17.3x    frame=78711 fps=415 q=-0.0 size=N/A time=00:54:42.90 bitrate=N/A speed=17.3x    frame=78883 fps=414 q=-0.0 size=N/A time=00:54:50.07 bitrate=N/A speed=17.3x    frame=79056 fps=414 q=-0.0 size=N/A time=00:54:57.29 bitrate=N/A speed=17.3x    frame=79233 fps=414 q=-0.0 size=N/A time=00:55:04.67 bitrate=N/A speed=17.3x    frame=79383 fps=414 q=-0.0 size=N/A time=00:55:10.93 bitrate=N/A speed=17.3x    frame=79552 fps=413 q=-0.0 size=N/A time=00:55:17.98 bitrate=N/A speed=17.2x    frame=79715 fps=413 q=-0.0 size=N/A time=00:55:24.77 bitrate=N/A speed=17.2x    frame=79877 fps=413 q=-0.0 size=N/A time=00:55:31.53 bitrate=N/A speed=17.2x    frame=80072 fps=413 q=-0.0 size=N/A time=00:55:39.66 bitrate=N/A speed=17.2x    frame=80277 fps=413 q=-0.0 size=N/A time=00:55:48.21 bitrate=N/A speed=17.2x    frame=80512 fps=413 q=-0.0 size=N/A time=00:55:58.02 bitrate=N/A speed=17.2x    [Parsed_psnr_10 @ 00000292554383c0] PSNR y:48.231365 u:50.059276 v:50.043037 average:48.757533 min:38.193921 max:inf
[out#0/null @ 0000029254ae3680] video:34622KiB audio:630140KiB subtitle:0KiB other streams:0KiB global headers:0KiB muxing overhead: unknown
frame=80574 fps=413 q=-0.0 Lsize=N/A time=00:56:00.60 bitrate=N/A speed=17.2x    
